# xmcd CD database file
#
# Track frame offsets:
#	150
#	16403
#	33560
#	49110
#	66197
#	79257
#	95593
#	111079
#	125137
#	146156
#	163986
#	178361
#	193030
#	208699
#	224689
#	240740
#	261325
#	281221
#	301983
#	315120
#
# Disc length: 4434 seconds
#
# Revision: 0
# Processed by: cddbd v1.5.2PL0 Copyright (c) Steve Scherf et al.
# Submitted via: CDex 1.51
#
DISCID=3e115014
DTITLE=Bellamy Brothers - Best Of The Best Volume 2
DYEAR=2000
DGENRE=Country
TTITLE0=Crossfire
TTITLE1=I Love You (More And More)
TTITLE2=Forever Is A Very Long Way
TTITLE3=My Heart Is Crying
TTITLE4=Too Late
TTITLE5=Tough Love
TTITLE6=I Wish I Had You
TTITLE7=Get Your priorities in line
TTITLE8=shine them buckles
TTITLE9=we don't wanna go for it
TTITLE10=a little naive
TTITLE11=how can you be everywhere at the same time
TTITLE12=heartbreak overload
TTITLE13=forget about me
TTITLE14=what's the world coming to
TTITLE15=the fountain of midlle age
TTITLE16=hanging in
TTITLE17=hurricane alley
TTITLE18=it's raining girls
TTITLE19=let your love flow
EXTD=YEAR: 2000
EXTT0=
EXTT1=
EXTT2=
EXTT3=
EXTT4=
EXTT5=
EXTT6=
EXTT7=
EXTT8=
EXTT9=
EXTT10=
EXTT11=
EXTT12=
EXTT13=
EXTT14=
EXTT15=
EXTT16=
EXTT17=
EXTT18=
EXTT19=
PLAYORDER=
